<svg width="155" height="100" viewBox="0 0 155 100" fill="none" xmlns="http://www.w3.org/2000/svg">
<path d="M48.6484 21.9141L36.8359 54H33.8359L46.7266 19.875H48.8125L48.6484 21.9141ZM59.3828 54L47.5469 21.9141L47.3828 19.875H49.4688L62.3828 54H59.3828ZM57.2734 41.9531V44.4375H39.1562V41.9531H57.2734ZM76.7734 54H69.0391L69.0859 51.5391H76.7734C79.2266 51.5391 81.3359 50.9922 83.1016 49.8984C84.8828 48.7891 86.2578 47.2578 87.2266 45.3047C88.1953 43.3516 88.6797 41.0859 88.6797 38.5078V35.3203C88.6797 33.3516 88.3984 31.5703 87.8359 29.9766C87.2891 28.3828 86.5 27.0234 85.4688 25.8984C84.4375 24.7578 83.2031 23.8828 81.7656 23.2734C80.3438 22.6641 78.75 22.3594 76.9844 22.3594H68.8984V19.875H76.9844C79.1094 19.875 81.0547 20.2422 82.8203 20.9766C84.6016 21.6953 86.1406 22.7422 87.4375 24.1172C88.75 25.4766 89.7578 27.1094 90.4609 29.0156C91.1797 30.9219 91.5391 33.0469 91.5391 35.3906V38.5078C91.5391 40.8516 91.1797 42.9766 90.4609 44.8828C89.7578 46.7891 88.75 48.4219 87.4375 49.7812C86.125 51.1406 84.5703 52.1875 82.7734 52.9219C80.9766 53.6406 78.9766 54 76.7734 54ZM70.3281 19.875V54H67.4453V19.875H70.3281ZM120.109 51.5391V54H100.914V51.5391H120.109ZM101.781 19.875V54H98.8984V19.875H101.781ZM117.719 35.1797V37.6406H100.914V35.1797H117.719ZM119.992 19.875V22.3594H100.914V19.875H119.992Z" fill="#FFFAF2"/>
<path d="M44.8486 78.7266C44.8486 78.1504 44.7705 77.6377 44.6143 77.1885C44.458 76.7295 44.1992 76.3193 43.8379 75.958C43.4766 75.5967 42.9834 75.2598 42.3584 74.9473C41.7432 74.625 40.9814 74.3076 40.0732 73.9951C39.1748 73.6924 38.3643 73.3604 37.6416 72.999C36.9287 72.6377 36.3135 72.2227 35.7959 71.7539C35.2881 71.2852 34.8975 70.7383 34.624 70.1133C34.3604 69.4883 34.2285 68.7559 34.2285 67.916C34.2285 67.0859 34.375 66.334 34.668 65.6602C34.9707 64.9766 35.3906 64.3906 35.9277 63.9023C36.4648 63.4141 37.0996 63.0381 37.832 62.7744C38.5645 62.5107 39.375 62.3789 40.2637 62.3789C41.5332 62.3789 42.627 62.667 43.5449 63.2432C44.4727 63.8096 45.1855 64.5762 45.6836 65.543C46.1816 66.5 46.4307 67.5693 46.4307 68.751H44.7607C44.7607 67.8232 44.585 66.998 44.2334 66.2754C43.8916 65.5527 43.3838 64.9863 42.71 64.5762C42.0459 64.1562 41.2354 63.9463 40.2783 63.9463C39.3213 63.9463 38.5156 64.127 37.8613 64.4883C37.2168 64.8398 36.7334 65.3135 36.4111 65.9092C36.0889 66.4951 35.9277 67.1445 35.9277 67.8574C35.9277 68.3652 36.0059 68.834 36.1621 69.2637C36.3184 69.6934 36.5771 70.0889 36.9385 70.4502C37.3096 70.8115 37.7979 71.1533 38.4033 71.4756C39.0088 71.7881 39.7412 72.0811 40.6006 72.3545C41.5674 72.667 42.417 73.0137 43.1494 73.3945C43.8916 73.7656 44.5117 74.2051 45.0098 74.7129C45.5176 75.2109 45.8984 75.7871 46.1523 76.4414C46.416 77.0957 46.5479 77.8477 46.5479 78.6973C46.5479 79.5762 46.3965 80.3623 46.0938 81.0557C45.791 81.7393 45.3613 82.3252 44.8047 82.8135C44.248 83.292 43.5938 83.6582 42.8418 83.9121C42.0898 84.166 41.2598 84.293 40.3516 84.293C39.5605 84.293 38.7646 84.1709 37.9639 83.9268C37.1729 83.6826 36.4502 83.3018 35.7959 82.7842C35.1514 82.2666 34.6338 81.6025 34.2432 80.792C33.8525 79.9814 33.6572 79.0146 33.6572 77.8916H35.3418C35.3418 78.7803 35.4883 79.5371 35.7812 80.1621C36.084 80.7773 36.4746 81.2754 36.9531 81.6562C37.4316 82.0273 37.9688 82.3008 38.5645 82.4766C39.1602 82.6426 39.7607 82.7256 40.3662 82.7256C41.2842 82.7256 42.0752 82.5596 42.7393 82.2275C43.4131 81.8955 43.9307 81.4316 44.292 80.8359C44.6631 80.2305 44.8486 79.5273 44.8486 78.7266ZM56.4795 62.6719V84H54.8096V62.6719H56.4795ZM62.5439 62.6719V64.2393H48.7598V62.6719H62.5439ZM76.709 62.6719H78.3789V77.7012C78.3789 79.3027 78.0908 80.5869 77.5146 81.5537C76.9482 82.5107 76.1816 83.209 75.2148 83.6484C74.2578 84.0879 73.1982 84.3076 72.0361 84.3076C70.8447 84.3076 69.7705 84.0928 68.8135 83.6631C67.8564 83.2236 67.0996 82.5205 66.543 81.5537C65.9863 80.5869 65.708 79.3027 65.708 77.7012V62.6719H67.3779V77.7012C67.3779 78.9414 67.5781 79.9326 67.9785 80.6748C68.3789 81.4072 68.9307 81.9346 69.6338 82.2568C70.3369 82.5791 71.1377 82.7402 72.0361 82.7402C72.9541 82.7402 73.7598 82.5791 74.4531 82.2568C75.1562 81.9248 75.708 81.3926 76.1084 80.6602C76.5088 79.9277 76.709 78.9414 76.709 77.7012V62.6719ZM88.0029 84H84.0039L84.0186 82.4326H88.0029C89.2822 82.4326 90.3711 82.1641 91.2695 81.627C92.168 81.0898 92.8516 80.3037 93.3203 79.2686C93.7988 78.2334 94.0381 76.9688 94.0381 75.4746V71.1533C94.0381 70.0205 93.9014 69.0244 93.6279 68.165C93.3643 67.2959 92.9736 66.5732 92.4561 65.9971C91.9482 65.4111 91.3281 64.9717 90.5957 64.6787C89.8633 64.3857 89.0381 64.2393 88.1201 64.2393H83.916V62.6719H88.1201C89.2529 62.6719 90.2783 62.8574 91.1963 63.2285C92.124 63.5996 92.9248 64.1465 93.5986 64.8691C94.2725 65.5918 94.79 66.4854 95.1514 67.5498C95.5127 68.6045 95.6934 69.8154 95.6934 71.1826V75.4746C95.6934 76.8516 95.5127 78.0723 95.1514 79.1367C94.79 80.1914 94.2725 81.0801 93.5986 81.8027C92.9248 82.5254 92.1143 83.0723 91.167 83.4434C90.2295 83.8145 89.1748 84 88.0029 84ZM84.7949 62.6719V84H83.1104V62.6719H84.7949ZM102.212 62.6719V84H100.513V62.6719H102.212ZM120.757 71.0361V75.6504C120.757 77.0469 120.596 78.2871 120.273 79.3711C119.961 80.4453 119.502 81.3486 118.896 82.0811C118.301 82.8135 117.578 83.3701 116.729 83.751C115.889 84.1221 114.937 84.3076 113.872 84.3076C112.827 84.3076 111.88 84.1221 111.03 83.751C110.181 83.3701 109.453 82.8135 108.848 82.0811C108.242 81.3486 107.773 80.4453 107.441 79.3711C107.119 78.2871 106.958 77.0469 106.958 75.6504V71.0361C106.958 69.6299 107.119 68.3848 107.441 67.3008C107.764 66.2168 108.223 65.3135 108.818 64.5908C109.424 63.8682 110.151 63.3213 111.001 62.9502C111.851 62.5693 112.798 62.3789 113.843 62.3789C114.917 62.3789 115.879 62.5693 116.729 62.9502C117.578 63.3213 118.301 63.8682 118.896 64.5908C119.502 65.3135 119.961 66.2168 120.273 67.3008C120.596 68.3848 120.757 69.6299 120.757 71.0361ZM119.087 75.6504V71.0068C119.087 69.8447 118.97 68.8242 118.735 67.9453C118.511 67.0664 118.179 66.334 117.739 65.748C117.3 65.1621 116.753 64.7227 116.099 64.4297C115.444 64.1367 114.692 63.9902 113.843 63.9902C113.022 63.9902 112.285 64.1367 111.631 64.4297C110.986 64.7227 110.439 65.167 109.99 65.7627C109.551 66.3486 109.214 67.0811 108.979 67.96C108.745 68.8291 108.628 69.8447 108.628 71.0068V75.6504C108.628 76.8223 108.745 77.8477 108.979 78.7266C109.224 79.5957 109.57 80.3281 110.02 80.9238C110.469 81.5098 111.016 81.9492 111.66 82.2422C112.314 82.5352 113.052 82.6816 113.872 82.6816C114.722 82.6816 115.469 82.5352 116.113 82.2422C116.768 81.9492 117.314 81.5098 117.754 80.9238C118.193 80.3281 118.525 79.5957 118.75 78.7266C118.975 77.8477 119.087 76.8223 119.087 75.6504Z" fill="#FFFAF2"/>
</svg>
