<svg width="644" height="600" viewBox="0 0 644 600" fill="none" xmlns="http://www.w3.org/2000/svg">
<rect width="643.461" height="600" fill="#FAFAFA"/>
<ellipse cx="322.5" cy="409.65" rx="119.5" ry="11.5" fill="#D9D9D9"/>
<path d="M474.951 278.793C464.485 276.259 218.784 311.912 218.784 311.912C218.784 311.912 214.68 313.248 210.186 310.51C210.186 310.51 203.026 300.624 196.536 299.053C189.277 297.296 177.731 302.655 171.574 305.241C164.916 308.038 159.26 310.414 155.379 314.91C155.379 314.91 149.554 321.654 150.056 327.89C150.557 334.127 155.44 342.103 159.822 343.843C166.397 346.454 183.344 346.139 183.344 346.139C183.344 346.139 200.207 344.786 204.256 342.368C210.785 338.471 212.021 333.376 213.461 324.892L219.619 322.306C219.619 322.306 471.736 291.604 475.786 289.187C479.322 287.076 481.441 280.364 474.951 278.793Z" fill="#5C412B"/>
<path d="M200.359 316.472C200.359 316.472 199.394 310.545 196.536 309.2C185.337 303.931 163.999 316.472 163.999 316.472C163.999 316.472 156.727 322.073 158.181 327.89M218.784 311.912C218.784 311.912 464.485 276.259 474.951 278.793C481.441 280.364 479.322 287.076 475.786 289.187C471.736 291.604 219.619 322.306 219.619 322.306L213.461 324.892C212.021 333.376 210.785 338.471 204.256 342.368C200.207 344.786 183.344 346.139 183.344 346.139C183.344 346.139 166.397 346.454 159.822 343.843C155.44 342.103 150.557 334.127 150.056 327.89C149.554 321.654 155.379 314.91 155.379 314.91C159.26 310.414 164.916 308.038 171.574 305.241C177.731 302.655 189.277 297.296 196.536 299.053C203.026 300.624 210.186 310.51 210.186 310.51C214.68 313.248 218.784 311.912 218.784 311.912Z" stroke="black" stroke-width="0.8"/>
<path d="M163.998 317.927C159.635 320.836 159.635 325.199 159.635 325.199C159.635 325.199 162.208 322.29 163.998 320.836C166.568 318.747 171.27 316.472 171.27 316.472C171.27 316.472 181.004 312.748 185.815 312.109C188.63 311.735 190.294 311.592 193.087 312.109C196.094 312.666 198.904 316.472 198.904 316.472C198.904 316.472 198.363 312.224 195.996 310.655C193.116 308.746 189.166 308.362 185.814 309.2C177.48 311.284 171.223 313.11 163.998 317.927Z" fill="#442B16" stroke="#442B16" stroke-width="0.3"/>
<path d="M412.4 290.861L413.45 291.899L414.024 290.538C414.868 288.54 416.198 286.17 417.689 283.552C417.785 283.383 417.882 283.213 417.98 283.042C419.378 280.589 420.88 277.952 422.164 275.307C423.535 272.482 424.685 269.592 425.195 266.839C425.706 264.083 425.59 261.38 424.322 259.011C422.51 255.628 419.102 253.077 414.979 251.118C410.842 249.152 405.871 247.729 400.773 246.665C392.706 244.982 384.18 244.175 377.958 243.586C376.326 243.431 374.851 243.292 373.586 243.155L372.157 243.001L372.509 244.395L374.232 251.209L374.38 251.794L374.965 251.936C376.947 252.417 380.246 252.881 384.067 253.417C384.188 253.434 384.31 253.451 384.431 253.469C388.438 254.032 393.043 254.684 397.493 255.533C401.952 256.383 406.204 257.421 409.518 258.74C411.174 259.4 412.559 260.116 413.608 260.889C414.661 261.665 415.315 262.455 415.613 263.243C417.158 267.335 416.5 270.945 414.737 274.376C413.039 277.681 410.353 280.754 407.629 283.869C407.48 284.039 407.331 284.21 407.181 284.381L406.563 285.089L407.232 285.749L412.4 290.861Z" fill="#3A3D3B" stroke="black" stroke-width="2"/>
<path d="M239.539 307.242L238.803 308.54L237.883 307.365C236.622 305.756 234.828 303.928 232.825 301.91C232.696 301.78 232.566 301.649 232.435 301.518C230.557 299.628 228.539 297.597 226.715 295.503C224.767 293.267 223 290.914 221.846 288.525C220.69 286.134 220.11 283.63 220.661 281.14C221.447 277.589 223.889 274.405 227.12 271.588C230.363 268.762 234.493 266.225 238.825 263.986C245.681 260.443 253.17 257.585 258.633 255.501C260.065 254.954 261.359 254.461 262.464 254.022L263.798 253.493L263.833 254.928L263.993 261.57L264.007 262.173L263.481 262.467C261.812 263.4 258.951 264.644 255.643 266.082C255.537 266.128 255.431 266.175 255.324 266.221C251.853 267.731 247.866 269.471 244.069 271.35C240.264 273.233 236.695 275.234 234.044 277.257C232.72 278.268 231.655 279.261 230.908 280.221C230.159 281.185 229.774 282.057 229.705 282.838C229.342 286.938 230.837 290.054 233.282 292.737C235.64 295.323 238.83 297.453 242.07 299.617C242.247 299.735 242.424 299.854 242.601 299.972L243.373 300.488L242.915 301.297L239.539 307.242Z" fill="#3A3D3B" stroke="black" stroke-width="2"/>
<path d="M267.833 217.571C267.833 217.571 268.286 222.039 267.833 224.843C267.145 229.114 263.471 235.024 263.471 235.024C262.251 237.933 262.251 240.842 262.251 244.648V250.861L260.561 257.074L257.653 263.287L253.289 269.501L247.28 274.161L241.654 278.657C241.654 278.657 239.111 283.434 234.382 290.293C229.652 297.151 227.109 305.148 227.109 311.44V325.42V342.652C228.564 357.196 228.564 357.196 232.927 368.832C234.399 372.755 237.29 379.013 241.654 382.892L247.845 388.997L250.94 392.05L254.035 395.102C254.035 395.102 258.348 400.829 263.471 404.54C266.379 406.647 273.651 409.556 278.015 410.832C281.216 411.768 288.195 412.405 288.195 412.405H301.318H308.072H314.827H321.582H326.648H331.714H336.78H341.846L346.912 412.405L351.978 412.405C351.978 412.405 356.037 412.634 358.008 412.465C362.978 412.038 367.679 412.635 372.552 411.01C374.986 410.199 377.402 408.816 379.824 408.101C382.235 407.39 386.106 405.893 388.551 405.192C391.402 404.376 394.811 401.978 397.278 400.829C400.365 399.391 406.004 395.011 406.004 395.011L411.822 390.648C411.822 390.648 416.028 387.548 417.64 386.285C420.168 384.303 422.003 381.922 422.003 381.922C422.003 381.922 425.639 377.204 426.279 376.104C426.919 375.004 427.242 373.453 427.821 371.741C429.003 368.242 430.322 366.184 430.593 362.699C430.782 360.279 430.593 356.486 430.593 356.486V351.826V347.166V342.506V337.846V331.633V325.42V320.76V316.1C430.679 313.594 431.502 310.126 430.73 307.746L428.905 302.12L425.527 292.8C425.527 292.8 424.737 289.869 423.839 288.14C422.812 286.164 420.461 283.48 420.461 283.48L417.084 278.82L413.276 272.839C410.367 269.931 410.117 268.476 404.55 265.567C400.675 263.543 396.409 261.154 394.369 257.074L390.005 249.569L378.37 227.752L374.007 219.025L371.098 213.208C369.622 209.134 368.796 207.686 366.735 204.481L366.699 204.426C364.751 201.398 363.47 199.407 362.371 197.209C360.917 194.3 355.355 185.897 355.355 185.897L353.666 182.751C353.666 182.751 352.19 178.301 349.281 175.393C346.373 172.484 343.464 171.029 343.464 171.029C343.464 171.029 337.646 168.536 333.283 168.12C328.919 167.705 327.465 171.029 324.556 172.484C321.647 173.938 321.68 173.938 318.738 173.938C315.797 173.938 308.557 166.666 308.557 166.666C305.649 164.461 302.405 164.461 297.957 164.461C295.238 164.461 292.74 166.988 290.587 168.536C287.48 170.77 279.849 174.971 278.015 178.301L275.106 182.751C275.106 182.751 272.233 187.184 270.922 190.282C268.925 194.998 267.921 200.817 267.833 203.027C267.544 210.299 267.833 209.36 267.833 217.571Z" stroke="black" stroke-width="2.5"/>
<path fill-rule="evenodd" clip-rule="evenodd" d="M267.833 224.843C268.286 222.039 267.833 217.571 267.833 217.571C267.833 209.36 267.544 210.299 267.833 203.027C267.921 200.817 268.925 194.998 270.922 190.282C272.233 187.184 275.106 182.751 275.106 182.751L278.015 178.301C279.849 174.971 287.48 170.77 290.587 168.536C292.74 166.988 295.238 164.461 297.958 164.461C302.405 164.461 305.649 164.461 308.557 166.666C308.557 166.666 315.797 173.938 318.738 173.938C321.68 173.938 321.647 173.938 324.556 172.484C327.465 171.029 328.919 167.705 333.283 168.12C337.646 168.536 343.464 171.029 343.464 171.029C343.464 171.029 346.373 172.484 349.281 175.393C352.19 178.301 353.666 182.751 353.666 182.751L355.355 185.897C355.355 185.897 360.917 194.3 362.371 197.209C363.47 199.407 364.751 201.398 366.699 204.425L366.735 204.481C368.796 207.686 369.622 209.134 371.098 213.208L378.37 227.752L390.006 249.569L394.369 257.074C396.409 261.154 400.675 263.543 404.55 265.567C410.117 268.476 410.368 269.931 413.276 272.839L417.084 278.82L420.461 283.48C420.461 283.48 422.812 286.164 423.839 288.14C424.737 289.869 425.527 292.8 425.527 292.8L428.905 302.12L430.73 307.746C431.502 310.126 430.679 313.594 430.593 316.1L430.73 336.15L430.593 356.486C430.593 356.486 430.782 360.279 430.593 362.699C430.322 366.184 429.003 368.242 427.821 371.741C427.242 373.453 426.919 375.004 426.279 376.104C425.639 377.204 422.003 381.922 422.003 381.922C422.003 381.922 420.168 384.303 417.64 386.285C416.028 387.548 411.822 390.648 411.822 390.648L406.004 395.011C406.004 395.011 400.365 399.391 397.278 400.829C394.811 401.978 391.402 404.376 388.551 405.192C386.106 405.893 382.235 407.39 379.824 408.101C377.402 408.816 374.986 410.199 372.552 411.01C367.679 412.635 362.978 412.038 358.008 412.465C356.037 412.634 351.978 412.405 351.978 412.405H288.195C288.195 412.405 281.216 411.768 278.015 410.832C273.651 409.556 266.379 406.647 263.471 404.54C258.348 400.829 254.035 395.102 254.035 395.102L241.654 382.892C237.29 379.013 234.399 372.755 232.927 368.832C228.564 357.196 228.564 357.196 227.109 342.652V311.44C227.109 305.148 229.652 297.151 234.382 290.293C239.111 283.434 241.654 278.657 241.654 278.657L247.28 274.161L253.289 269.501L257.653 263.287L260.561 257.074L262.251 250.861V244.648C262.251 240.842 262.251 237.933 263.471 235.024C263.471 235.024 267.145 229.114 267.833 224.843ZM280.923 205.572C280.234 207.707 279.468 211.317 279.468 211.317V247.223C279.778 250.312 279.311 253.019 278.014 255.841L273.651 268.767L267.833 280.257L264.924 283.129C264.924 283.129 262.878 284.659 262.015 286.002C257.942 292.344 254.743 299.019 254.743 304.837V320.836C254.743 331.763 254.153 344.142 256.197 354.942C256.916 358.739 260.258 362.961 262.015 366.432L267.833 375.049C271.363 380.279 273.495 386.186 278.014 390.648C280.922 394.793 285.286 397.469 291.104 400.902C298.376 405.192 301.285 406.647 308.557 406.647H356.553C356.553 406.647 359.217 406.771 360.917 406.647C363.805 406.436 366.266 405.922 369.643 405.192C372.552 404.564 375.461 403.738 375.461 403.738C375.461 403.738 383.718 401.791 388.551 399.375C391.21 398.045 393.52 396.41 395.823 394.727C397.706 393.352 399.583 391.945 401.641 390.648C402.991 389.797 407.458 386.285 407.458 386.285L416.185 379.358C416.185 379.358 419.147 376.992 420.548 375.049C422.116 372.875 423.457 368.832 423.457 368.832C423.457 368.832 424.678 363.91 424.911 360.687C425.074 358.449 424.911 354.942 424.911 354.942V313.291C424.911 313.291 425.177 310.644 424.911 308.982C424.631 307.228 423.457 304.673 423.457 304.673L420.548 296.056C420.548 296.056 419.867 293.346 419.094 291.747C418.209 289.919 416.185 287.438 416.185 287.438L410.367 278.821C410.367 278.821 408.901 275.94 407.458 274.512C406.008 273.077 403.095 271.639 403.095 271.639L394.368 265.894C394.368 265.894 391.405 264.506 390.005 263.022C388.279 261.193 387.096 257.277 387.096 257.277L372.552 228.552L369.643 221.934C365.279 213.208 363.825 211.753 358.008 203.027C356.599 200.913 355.099 197.209 355.099 197.209L350.736 188.482C349.262 184.726 344.584 179.337 340.554 178.283L336.191 176.847C332.324 175.574 328.893 177.031 326.01 179.72C326.01 179.72 322.726 182.592 320.192 182.592C317.659 182.592 314.375 179.72 314.375 179.72C311.319 177.592 306.57 175.393 302.739 175.393C300.397 175.393 298.775 175.416 296.921 176.847C294.245 178.913 292.683 185.257 291.104 188.337L282.377 201.263C282.377 201.263 281.546 203.64 280.923 205.572Z" fill="#3A3D3B" stroke="black" stroke-width="2.5"/>
<path d="M279.467 234.297V228.552V224.243V219.934V215.626V211.317C279.467 211.317 280.233 207.707 280.922 205.572C281.546 203.64 282.376 201.263 282.376 201.263L285.285 196.955L288.194 192.646L291.103 188.337C292.682 185.257 294.244 178.913 296.921 176.847C298.775 175.416 300.396 175.393 302.738 175.393C306.569 175.393 311.318 177.592 314.374 179.72C314.374 179.72 317.658 182.592 320.191 182.592C322.725 182.592 326.009 179.72 326.009 179.72C328.892 177.031 332.323 175.574 336.19 176.847L340.554 178.283C344.583 179.337 349.261 184.726 350.735 188.482L352.189 191.391L353.643 194.3L355.098 197.209C355.098 197.209 356.598 200.913 358.007 203.027C363.824 211.753 365.279 213.208 369.642 221.934L372.551 228.552L375.46 234.297L378.369 240.042L381.277 245.787L384.186 251.532L387.095 257.277C387.095 257.277 388.278 261.193 390.004 263.022C391.404 264.506 394.367 265.894 394.367 265.894L398.731 268.767L403.094 271.639C403.094 271.639 406.007 273.077 407.457 274.512C408.9 275.94 410.366 278.821 410.366 278.821L413.275 283.129L416.184 287.438C416.184 287.438 418.208 289.919 419.093 291.747C419.866 293.346 420.547 296.056 420.547 296.056L422.002 300.364L423.456 304.673C423.456 304.673 424.63 307.228 424.91 308.982C425.176 310.644 424.91 313.291 424.91 313.291V317.599V321.908V326.217V331.962V337.707V342.016V346.324V350.633V354.942C424.91 354.942 425.073 358.449 424.91 360.687C424.677 363.91 423.456 368.832 423.456 368.832C423.456 368.832 422.115 372.875 420.547 375.049C419.146 376.992 416.184 379.358 416.184 379.358L407.457 386.285C407.457 386.285 402.99 389.797 401.64 390.648C399.582 391.945 397.705 393.352 395.822 394.727C393.519 396.41 391.209 398.045 388.55 399.375C383.717 401.791 375.46 403.738 375.46 403.738C375.46 403.738 372.551 404.564 369.642 405.192C366.265 405.922 363.804 406.436 360.916 406.647C359.216 406.771 356.552 406.647 356.552 406.647H352.189L347.826 406.647L343.462 406.647H339.099H334.736H330.372H326.009H320.191H314.374H308.556C301.284 406.647 298.375 405.192 291.103 400.902C285.285 397.469 280.921 394.793 278.013 390.648C273.494 386.186 271.362 380.279 267.832 375.049L264.923 370.741L262.014 366.432C260.257 362.961 256.915 358.739 256.197 354.942C254.153 344.142 254.742 331.763 254.742 320.836V313.563V304.837C254.742 299.019 257.941 292.344 262.014 286.002C262.877 284.659 264.923 283.129 264.923 283.129L267.832 280.257L270.741 274.512L273.65 268.767L275.104 264.458L276.559 260.149L278.013 255.841C279.31 253.019 279.777 250.312 279.467 247.223V242.914V238.606V234.297Z" fill="#558303"/>
<path d="M279.469 216.117V208.844L285.479 196.65L292.559 185.574L296.922 176.847L307.103 175.393L320.193 182.665L324.556 181.21L332.51 176.15L346.373 181.21L353.645 194.3L360.979 207.65L368.979 220.15C370.432 224.19 372.871 227.752 372.871 227.752C372.871 227.752 366.55 223.41 362.371 219.349C358.191 215.288 354.191 214.229 349.281 211.753C344.259 209.221 337.839 207.95 332.51 206.744C324.729 204.982 318.538 203.963 310.648 204.643C303.967 205.218 299.773 204.983 293.831 208.844C289.281 211.802 287.025 214.426 283.741 219.349C277.886 228.128 279.468 223.389 279.468 223.389L279.469 216.117Z" fill="#7C7B7B"/>
<path d="M296.923 176.847C296.923 176.847 294.196 182.665 292.56 185.574C290.923 188.482 283.742 198.987 283.742 198.987L295.467 188.574C295.467 188.574 298.376 184.586 302.739 184.21C307.103 183.835 311.466 187.75 311.466 187.75C311.466 187.75 315.829 190.028 321.647 190.028C327.465 190.028 330.373 187.119 333.282 185.665C336.191 184.21 339.1 184.842 342.009 187.75C346.372 192.114 349.282 194.391 349.282 194.391L359.463 204.481C359.463 204.481 354.978 195.15 353.646 194.3C352.313 193.451 346.374 181.21 346.374 181.21L332.478 176.15L324.557 181.21L320.194 182.665L307.104 175.393H300.978L296.923 176.847Z" fill="#5C5C5C"/>
<path d="M352.19 259.75C341.974 258.574 349.282 259.75 366.736 252.477C370.246 251.015 375.748 249.569 374.007 237.933C373.211 232.614 366.736 216.41 366.736 214.662L374.979 232.65L390.006 262.658L407.459 274.294L419.094 291.747L424.912 307.746V313.563V361.56L420.549 376.104L388.551 399.375L373.979 404.15C373.979 404.15 359.133 408.394 373.979 401.65C378.746 399.484 394.455 390.501 398.479 387.15C404.833 381.858 417.555 374.796 419.094 366.15C421.184 354.406 421.479 347.077 421.479 335.15C421.479 326.63 420.549 319.65 419.094 310.65C416.67 295.65 407.06 280.005 395.479 272.15C383.897 264.294 377.479 262.658 352.19 259.75Z" fill="#356211"/>
<path d="M304.479 260.65C316.707 258.204 317.479 258.909 295.46 258.204C291.481 258.076 285.878 258.204 283.979 256.15C280.724 252.629 280.979 247.15 279.979 245.65C279.979 245.65 278.479 254.066 277.979 256.15C277.759 257.066 276.476 261.666 275.979 264.15C274.782 270.131 270.98 273.65 270.98 273.65L260.88 288.84L255.979 296.15L254.479 308.15L254.479 322.65L254.479 331.15L254.979 345.65L256.479 356.65L261.479 366.15L268.979 377.15L275.479 388.15L281.979 395.15L289.979 400.15L299.829 405.318L308.479 406.65L323.459 407.445C323.459 407.445 338.884 408.145 322.881 405.013C317.742 404.007 312.668 400.48 307.979 398.15C301.465 394.912 297.833 392.566 292.979 387.15C289.853 383.662 287.13 378.74 284.55 374.831C279.479 367.15 273.934 362.755 271.178 351.15C269.209 342.86 269.448 339.744 269.979 328.65C270.257 322.838 269.884 317.463 271.178 312.232C272.733 305.945 276.98 298.895 276.98 298.895L283.861 283.807C287.938 279.356 299.479 261.65 304.479 260.65Z" fill="#356211"/>
<path d="M336.19 176.847C338.674 177.664 340.554 178.283 340.554 178.283M336.19 176.847C332.323 175.574 328.892 177.031 326.009 179.72C326.009 179.72 322.725 182.592 320.191 182.592C317.658 182.592 314.374 179.72 314.374 179.72C311.318 177.592 306.569 175.393 302.738 175.393C300.396 175.393 298.775 175.416 296.921 176.847C294.244 178.913 292.682 185.257 291.103 188.337L288.194 192.646L285.285 196.955L282.376 201.263C282.376 201.263 281.546 203.64 280.922 205.572C280.233 207.707 279.467 211.317 279.467 211.317V215.626V219.934V224.243V228.552V234.297V238.606V242.914V247.223C279.777 250.312 279.31 253.019 278.013 255.841L276.559 260.149L275.104 264.458L273.65 268.767L270.741 274.512L267.832 280.257L264.923 283.129C264.923 283.129 262.877 284.659 262.014 286.002C257.941 292.344 254.742 299.019 254.742 304.837L254.742 310.65L254.742 320.836C254.742 331.763 254.153 344.142 256.197 354.942C256.915 358.739 260.257 362.961 262.014 366.432L264.923 370.741L267.832 375.049C271.362 380.279 273.494 386.186 278.013 390.648C280.921 394.793 285.285 397.469 291.103 400.902C298.375 405.192 301.284 406.647 308.556 406.647H314.374H320.191H326.009H330.372H334.736H339.099H343.462L347.826 406.647L352.189 406.647H356.552C356.552 406.647 359.216 406.771 360.916 406.647C363.804 406.436 366.265 405.922 369.642 405.192C372.551 404.564 375.46 403.738 375.46 403.738C375.46 403.738 383.717 401.791 388.55 399.375C391.209 398.045 393.519 396.41 395.822 394.727C397.705 393.352 399.582 391.945 401.64 390.648C402.99 389.797 407.457 386.285 407.457 386.285L416.184 379.358C416.184 379.358 419.146 376.992 420.547 375.049C422.115 372.875 423.456 368.832 423.456 368.832C423.456 368.832 424.677 363.91 424.91 360.687C425.073 358.449 424.91 354.942 424.91 354.942V350.633V346.324V342.016V337.707V331.962V326.217V321.908V317.599V313.291C424.91 313.291 425.176 310.644 424.91 308.982C424.63 307.228 423.456 304.673 423.456 304.673L422.002 300.364L420.547 296.056C420.547 296.056 419.866 293.346 419.093 291.747C418.208 289.919 416.184 287.438 416.184 287.438L413.275 283.129L410.366 278.821C410.366 278.821 408.9 275.94 407.457 274.512C406.007 273.077 403.094 271.639 403.094 271.639L398.731 268.767L394.367 265.894C394.367 265.894 391.404 264.506 390.004 263.022C388.278 261.193 387.095 257.277 387.095 257.277L384.186 251.532L381.277 245.787L378.369 240.042L375.46 234.297L372.551 228.552L369.642 221.934C365.279 213.208 363.824 211.753 358.007 203.027C356.598 200.913 355.098 197.209 355.098 197.209L353.643 194.3L352.189 191.391L350.735 188.482C349.261 184.726 344.583 179.337 340.554 178.283M336.19 176.847L340.554 178.283" stroke="black" stroke-width="1.5"/>
<path d="M285.71 206.354L297.097 192.583M291.782 206.002L303.169 192.231M297.854 205.651L309.241 191.88M303.926 205.299L315.313 191.528M309.998 204.947L321.385 191.176M316.07 204.596L327.457 190.825M322.142 204.244L333.529 190.473M328.214 203.892L339.601 190.121M334.286 203.541L345.673 189.77M340.358 203.189L351.745 189.418" stroke="#252525" stroke-width="0.5"/>
<path d="M338.003 202.489C330.838 204.357 328.413 218.846 328.413 218.846L331.341 223.944C331.341 223.944 335.892 221.555 339.065 220.864C345.168 219.535 354.967 222.579 354.967 222.579C354.967 222.579 370.28 224.104 378.744 223.838C388.206 223.54 393.857 224.65 397.119 222.776C400.382 220.902 406.399 213.408 407.012 211.669C408.099 208.588 409.367 206.846 409.182 203.642L408.727 195.767C408.646 194.36 406.835 191.624 405.799 190.668C404.762 189.713 403.598 187.676 400.245 185.722C394.794 182.544 388.453 183.237 387.212 184.63C387.212 184.63 382.779 186.605 382.021 189.409C381.485 191.391 382.325 194.659 382.325 194.659C382.325 194.659 383.539 198.23 385.253 199.757C386.968 201.285 391.831 202.011 393.28 201.927C398.53 201.624 390.503 199.454 390.503 199.454C390.503 199.454 385.916 194.607 387.423 191.73C388.489 189.697 389.897 188.954 392.522 188.802C396.218 188.588 401.447 191.357 403.325 193.445C404.861 195.152 406.254 198.544 406.254 198.544C406.254 198.544 407.347 203.405 406.709 206.419C405.943 210.041 404.377 211.833 401.914 214.597C394.949 222.417 386.438 221.258 375.967 221.365C367.5 221.451 354.663 217.328 354.663 217.328C354.663 217.328 346.434 200.29 338.003 202.489Z" fill="black" stroke="black" stroke-width="0.5"/>
<path d="M309.127 204.158C316.46 205.188 320.538 219.301 320.538 219.301L318.216 224.703C318.216 224.703 313.421 222.854 310.189 222.533C303.974 221.917 294.591 226.068 294.591 226.068C294.591 226.068 279.555 229.348 271.117 230.059C261.684 230.854 256.199 232.607 252.742 231.121C249.285 229.636 242.445 222.886 241.635 221.228C240.201 218.293 238.74 216.709 238.555 213.505L238.099 205.629C238.018 204.222 239.502 201.296 240.421 200.228C241.34 199.159 242.262 197.002 245.368 194.674C250.416 190.89 256.795 190.847 258.188 192.088C258.188 192.088 262.819 193.539 263.895 196.237C264.655 198.145 264.198 201.487 264.198 201.487C264.198 201.487 263.404 205.174 261.877 206.889C260.349 208.603 255.603 209.885 254.153 209.969C248.903 210.273 256.626 207.192 256.626 207.192C256.626 207.192 260.625 201.849 258.796 199.166C257.503 197.268 256.02 196.692 253.394 196.844C249.698 197.058 244.823 200.41 243.198 202.701C241.869 204.574 240.876 208.103 240.876 208.103C240.876 208.103 240.351 213.058 241.331 215.978C242.51 219.488 244.272 221.087 247.037 223.55C254.856 230.515 263.177 228.383 273.591 227.282C282.011 226.392 294.287 220.818 294.287 220.818C294.287 220.818 300.499 202.945 309.127 204.158Z" fill="black" stroke="black"/>
<path d="M377.223 331.31C377.375 335.057 378.082 338.696 377.669 342.29C376.556 351.959 372.359 358.308 366.979 363.65C363.965 366.641 360.735 368.284 355.979 369.15C353.637 369.244 349.168 369.443 346.479 368.65C337.951 366.132 328.276 360.161 322.979 350.15C321.394 347.154 320.179 344.188 319.478 340.65C318.967 336.56 318.486 332.247 319.258 328.161C320.818 319.906 324.36 313.617 328.478 309.65C333.206 305.095 337.773 301.633 342.978 301.15C347.881 300.951 356.117 300.025 359.531 303.158C366.979 309.991 372.479 314.964 375.387 323.136C376.044 324.98 376.957 329.541 377.223 331.31Z" fill="#C4793B"/>
<path d="M337.581 364.538C333.865 362.361 331.865 360.847 329.131 357.681C327.681 356.002 323.659 349.699 321.644 345.225C320.056 341.7 319.803 334.041 319.803 334.041C320.73 337.911 322.447 343.53 323.995 346.078C325.848 349.126 329.075 352.922 331.494 355.52C335.797 360.143 339.014 362.192 344.978 364.018C350.278 365.641 358.024 366.961 363.014 364.018C365.066 362.808 369.152 359.693 370.572 357.966C371.991 356.24 370.092 360.12 370.092 360.12L364.418 366.165L356.873 368.774L348.396 368.804C348.396 368.804 341.452 366.805 337.581 364.538Z" fill="#935521"/>
<path d="M374.444 322.621C375.06 324.352 375.951 328.763 376.225 330.555C376.278 331.82 376.394 333.093 376.507 334.326C376.561 334.923 376.615 335.511 376.66 336.085C376.802 337.894 376.87 339.625 376.674 341.325C375.579 350.839 372.513 357.982 367.334 363.124C361.375 369.04 350.9 369.597 342.753 367.192C334.572 364.777 328.426 358.928 323.209 349.066C321.672 346.163 320.498 342.985 319.816 339.561C319.323 335.593 319.489 331.495 320.241 327.515C321.757 319.497 326.573 312.169 330.248 307.796C331.841 305.9 334.183 304.094 336.775 302.703C339.36 301.315 342.125 300.377 344.555 300.147C346.943 300.052 349.801 300.175 352.448 300.642C355.135 301.116 357.465 301.92 358.904 303.089C365.453 308.412 371.632 314.718 374.444 322.621Z" stroke="#684527" stroke-width="2"/>
<path d="M352.932 309.696C351.863 309.259 350.957 309.295 349.927 309.817C349.199 310.187 348.714 310.521 348.481 311.251C347.758 313.514 352.479 317.65 352.479 317.65C354.166 319.587 359.614 324.488 362.445 321.683C365.822 318.336 360.085 313.731 357.55 312.258C357.55 312.258 354.609 310.381 352.932 309.696Z" fill="#FFCCA2"/>
<path d="M342.979 168.15C336.979 174.15 282.075 173.668 281.951 172.15C281.827 170.632 282.338 169.662 281.951 164.919C281.703 161.883 299.86 160.401 311.494 159.452C323.128 158.502 338.453 155.724 341.409 158.539C344.674 161.648 344.034 167.095 342.979 168.15Z" fill="#FEF7EB" stroke="#A99F8D" stroke-width="2"/>
<path d="M339.101 134.669V157.65L285.287 162.303L280.924 139.032C272.197 141.941 266.379 141.941 254.744 141.941C248.772 141.941 243.044 140.738 237.291 139.032C225.592 135.563 218.55 127.555 215.474 115.761C213.611 108.616 213.408 103.942 215.474 96.8534C218.288 87.2022 225.267 79.2378 234.382 75.0369C236.443 74.0872 240.566 73.3038 243.866 72.7902C246.58 72.368 248.739 72.1281 248.739 72.1281C248.101 70.1296 247.703 68.0572 247.472 66.3104C246.638 60.015 247.738 56.086 250.381 50.3116C252.414 45.8688 255.115 41.8912 259.107 37.2218C264.73 30.6454 270.427 25.7702 278.742 23.0411C287.119 20.2917 297.198 20.4705 305.649 22.6775C317.321 25.7253 328.023 34.4173 336.192 43.0395C343.02 50.2464 350.494 66.427 351.941 69.983C351.586 68.735 350.978 66.3104 350.978 66.3104C356.796 66.3104 362.479 69.6496 362.479 69.6496C369.7 72.7836 376.793 83.0133 376.916 91.0357C377.039 99.0505 375.926 105.46 372.553 112.852C370.792 116.711 368.908 120.462 365.979 123.65C362.688 127.231 358.207 130.107 353.645 131.76C348.809 133.511 339.101 134.669 339.101 134.669Z" fill="#FEF7EB"/>
<path d="M295.468 125.942C292.479 134.669 284.979 137.68 280.924 139.032M280.924 139.032L285.287 162.303L339.101 157.65V134.669C339.101 134.669 348.809 133.511 353.645 131.76C358.207 130.107 362.688 127.231 365.979 123.65C368.908 120.462 370.792 116.711 372.553 112.852C375.926 105.46 377.039 99.0505 376.916 91.0357C376.793 83.0133 369.7 72.7836 362.479 69.6496C362.479 69.6496 356.796 66.3104 350.978 66.3104C350.978 66.3104 352.191 71.1496 352.191 70.6737C352.191 70.1978 343.792 51.0606 336.192 43.0395C328.023 34.4173 317.321 25.7253 305.649 22.6775C297.198 20.4705 287.119 20.2917 278.742 23.0411C270.427 25.7702 264.73 30.6454 259.107 37.2218C255.115 41.8912 252.414 45.8688 250.381 50.3116C247.738 56.086 246.638 60.015 247.472 66.3104C247.959 69.9883 249.184 75.1091 251.835 77.9458C253.234 79.4419 255.479 80.6496 256.198 80.8547M280.924 139.032C272.197 141.941 266.379 141.941 254.744 141.941C248.772 141.941 243.044 140.738 237.291 139.032C225.592 135.563 218.55 127.555 215.474 115.761C213.611 108.616 213.408 103.942 215.474 96.8534C218.288 87.2022 225.267 79.2378 234.382 75.0369C236.443 74.0872 240.566 73.3038 243.866 72.7902M243.866 72.7902C246.58 72.368 248.739 72.1281 248.739 72.1281L243.866 72.7902Z" stroke="#A99F8D" stroke-width="2" stroke-linecap="round"/>
<path d="M216.479 116.15C217.282 119.2 219.479 123.65 219.479 123.65C219.479 123.65 221.215 127.164 222.979 129.15C224.906 131.32 226.584 132.509 228.979 134.15C234.591 137.994 242.292 139.964 248.979 140.65C252.11 140.97 258.479 141.15 258.479 141.15C258.479 141.15 264.922 141.281 268.979 140.65C271.249 140.296 272.733 140.138 274.979 139.65C277.224 139.161 278.282 138.824 280.479 138.15C282.073 137.66 282.97 137.362 284.479 136.65C286.781 135.563 289.979 133.15 291.479 131.15C291.903 130.584 285.519 134.554 282.479 135.65C279.627 136.677 277.954 137.07 274.979 137.65C271.698 138.289 269.814 138.43 266.479 138.65C258.87 139.151 254.452 139.161 246.979 137.65C241.35 136.511 238.001 135.935 232.979 133.15C230.041 131.52 228.448 130.427 225.979 128.15C223.534 125.895 222.295 124.435 220.479 121.65C217.606 117.246 215.479 111.15 215.479 111.15C215.479 111.15 215.873 113.852 216.479 116.15Z" fill="#E4D8C1"/>
<path d="M250.979 78.1496C252.25 79.6321 255.479 81.6496 255.479 81.6496C255.479 81.6496 250.387 80.2758 248.979 79.1496C246.479 77.1496 244.979 74.3539 245.979 73.6496C246.793 73.0762 248.479 73.1496 248.479 73.1496C248.479 73.1496 249.558 76.492 250.979 78.1496Z" fill="#E4D8C1"/>
<path d="M285.979 161.15C285.717 160.888 281.979 139.65 281.979 139.65L283.479 139.15C283.479 139.15 287.766 161.15 287.479 161.15C287.191 161.15 286.24 161.411 285.979 161.15Z" fill="#E4D8C1"/>
<path d="M282.937 164.902L282.479 171.65H284.479C284.479 171.65 285.255 164.426 284.979 164.15C284.702 163.873 284.328 163.975 283.979 164.15L283.978 164.15C283.468 164.405 282.979 164.65 282.937 164.902Z" fill="#E4D8C1"/>
<path d="M193.903 510V444.2H202.457V510H193.903ZM207.063 480.484V472.306H215.711C217.528 472.306 219.126 472.024 220.505 471.46C221.884 470.833 222.949 469.799 223.701 468.358C224.516 466.854 224.923 464.786 224.923 462.154C224.923 459.71 224.547 457.767 223.795 456.326C223.043 454.885 221.978 453.882 220.599 453.318C219.22 452.691 217.56 452.378 215.617 452.378H207.063V444.2H216.839C220.536 444.263 223.607 444.952 226.051 446.268C228.558 447.521 230.438 449.495 231.691 452.19C232.944 454.822 233.571 458.269 233.571 462.53C233.571 466.917 232.913 470.426 231.597 473.058C230.281 475.627 228.37 477.507 225.863 478.698C223.419 479.826 220.411 480.421 216.839 480.484H207.063ZM269.519 510L267.263 499.66H253.633L255.419 491.388H265.101L254.667 444.2H263.127L277.979 510H269.519ZM238.217 510L250.719 454.446H252.223L255.513 469.768L246.583 510H238.217ZM284.137 510V444.2H292.691V501.634H319.481V510H284.137ZM338.899 510V452.472H322.825V444.2H363.527V452.472H347.359V510H338.899ZM399.32 510L397.064 499.66H383.434L385.22 491.388H394.902L384.468 444.2H392.928L407.78 510H399.32ZM368.018 510L380.52 454.446H382.024L385.314 469.768L376.384 510H368.018ZM412.246 510L427.38 475.972L413.374 444.2H421.646L431.61 465.538L441.574 444.2H449.846L435.746 475.972L450.974 510H442.326L431.61 486.876L420.894 510H412.246Z" fill="black"/>
<path d="M216.158 538.194H211.307V537.363H216.158C217.206 537.363 218.06 537.191 218.719 536.847C219.378 536.495 219.857 536.027 220.156 535.443C220.463 534.851 220.617 534.2 220.617 533.489C220.617 532.755 220.463 532.085 220.156 531.479C219.857 530.872 219.378 530.389 218.719 530.03C218.06 529.663 217.206 529.479 216.158 529.479H211.778V545H210.869V528.648H216.158C217.334 528.648 218.318 528.851 219.112 529.255C219.913 529.659 220.516 530.224 220.92 530.951C221.324 531.669 221.526 532.508 221.526 533.466C221.526 534.44 221.324 535.282 220.92 535.993C220.516 536.697 219.917 537.24 219.123 537.622C218.329 538.003 217.341 538.194 216.158 538.194ZM225.547 527.75V545H224.648V527.75H225.547ZM236.957 542.765V536.487C236.957 535.851 236.822 535.304 236.553 534.848C236.283 534.391 235.89 534.043 235.374 533.803C234.857 533.556 234.224 533.433 233.476 533.433C232.779 533.433 232.154 533.556 231.6 533.803C231.054 534.043 230.623 534.372 230.309 534.792C229.994 535.211 229.837 535.679 229.837 536.195L228.938 536.184C228.938 535.72 229.047 535.274 229.264 534.848C229.489 534.421 229.803 534.043 230.208 533.713C230.619 533.376 231.102 533.111 231.656 532.916C232.218 532.721 232.832 532.624 233.498 532.624C234.352 532.624 235.104 532.77 235.755 533.062C236.414 533.347 236.927 533.777 237.294 534.354C237.661 534.93 237.844 535.649 237.844 536.51V542.507C237.844 542.941 237.874 543.379 237.934 543.821C237.994 544.263 238.076 544.618 238.181 544.888V545H237.204C237.122 544.715 237.058 544.367 237.013 543.956C236.976 543.544 236.957 543.147 236.957 542.765ZM237.249 538.104L237.271 538.879H234.307C233.558 538.879 232.888 538.951 232.296 539.093C231.705 539.235 231.203 539.437 230.792 539.699C230.38 539.961 230.065 540.272 229.848 540.631C229.631 540.991 229.522 541.395 229.522 541.844C229.522 542.308 229.646 542.735 229.893 543.125C230.14 543.514 230.488 543.825 230.938 544.057C231.387 544.281 231.907 544.394 232.499 544.394C233.307 544.394 234.022 544.255 234.644 543.978C235.272 543.694 235.8 543.312 236.227 542.833C236.654 542.346 236.965 541.784 237.159 541.148L237.552 541.799C237.425 542.196 237.227 542.597 236.957 543.001C236.688 543.405 236.339 543.776 235.913 544.113C235.486 544.442 234.984 544.712 234.408 544.921C233.831 545.124 233.176 545.225 232.442 545.225C231.671 545.225 230.997 545.082 230.421 544.798C229.852 544.506 229.41 544.109 229.096 543.607C228.781 543.098 228.624 542.518 228.624 541.867C228.624 541.305 228.751 540.792 229.006 540.328C229.26 539.864 229.627 539.467 230.106 539.138C230.593 538.801 231.181 538.546 231.87 538.374C232.566 538.194 233.348 538.104 234.217 538.104H237.249ZM242.527 535.443V545H241.64V532.849H242.516L242.527 535.443ZM242.359 537.992L241.921 537.476C241.988 536.832 242.146 536.218 242.393 535.634C242.647 535.05 242.98 534.533 243.392 534.084C243.811 533.635 244.298 533.279 244.852 533.017C245.414 532.755 246.031 532.624 246.705 532.624C247.312 532.624 247.854 532.71 248.333 532.882C248.813 533.047 249.217 533.309 249.546 533.668C249.883 534.028 250.138 534.492 250.31 535.061C250.482 535.623 250.568 536.308 250.568 537.116V545H249.681V537.116C249.681 536.158 249.55 535.417 249.288 534.893C249.026 534.361 248.659 533.987 248.188 533.77C247.723 533.552 247.181 533.444 246.559 533.444C245.84 533.444 245.219 533.605 244.695 533.927C244.178 534.241 243.751 534.642 243.415 535.128C243.078 535.608 242.819 536.105 242.64 536.622C242.467 537.139 242.374 537.595 242.359 537.992ZM255.195 543.08V544.596C255.195 545.285 255.072 545.913 254.825 546.482C254.585 547.059 254.263 547.546 253.859 547.942L253.297 547.493C253.522 547.194 253.709 546.898 253.859 546.606C254.016 546.314 254.132 546.007 254.207 545.685C254.282 545.363 254.319 545.011 254.319 544.629V543.08H255.195ZM271.581 541.979C271.581 541.62 271.483 541.264 271.289 540.912C271.101 540.56 270.753 540.231 270.244 539.924C269.743 539.617 269.013 539.359 268.054 539.149C267.373 538.999 266.77 538.834 266.246 538.655C265.729 538.475 265.295 538.258 264.943 538.003C264.591 537.741 264.326 537.431 264.146 537.071C263.974 536.712 263.888 536.281 263.888 535.78C263.888 535.346 263.981 534.938 264.168 534.556C264.356 534.174 264.629 533.841 264.988 533.556C265.355 533.264 265.793 533.036 266.302 532.871C266.811 532.706 267.388 532.624 268.032 532.624C268.953 532.624 269.739 532.778 270.39 533.084C271.049 533.384 271.554 533.799 271.906 534.331C272.258 534.855 272.434 535.465 272.434 536.162H271.536C271.536 535.69 271.401 535.248 271.131 534.836C270.862 534.425 270.465 534.091 269.941 533.837C269.424 533.575 268.788 533.444 268.032 533.444C267.268 533.444 266.647 533.56 266.167 533.792C265.688 534.024 265.336 534.32 265.112 534.679C264.895 535.031 264.786 535.39 264.786 535.757C264.786 536.049 264.827 536.323 264.91 536.577C265 536.824 265.168 537.053 265.415 537.262C265.662 537.472 266.018 537.674 266.482 537.869C266.946 538.056 267.549 538.232 268.29 538.396C269.263 538.614 270.057 538.879 270.671 539.194C271.285 539.501 271.738 539.879 272.03 540.328C272.322 540.77 272.468 541.313 272.468 541.957C272.468 542.436 272.367 542.877 272.165 543.282C271.962 543.679 271.67 544.023 271.289 544.315C270.914 544.607 270.458 544.832 269.918 544.989C269.379 545.146 268.78 545.225 268.122 545.225C267.126 545.225 266.28 545.067 265.583 544.753C264.895 544.431 264.371 544.008 264.011 543.484C263.659 542.96 263.483 542.395 263.483 541.788H264.382C264.434 542.454 264.651 542.979 265.033 543.36C265.423 543.742 265.894 544.012 266.448 544.169C267.01 544.326 267.568 544.405 268.122 544.405C268.878 544.405 269.51 544.289 270.02 544.057C270.536 543.817 270.925 543.514 271.188 543.147C271.45 542.773 271.581 542.383 271.581 541.979ZM276.578 527.75V545H275.691V527.75H276.578ZM276.41 537.992L275.972 537.476C276.039 536.832 276.196 536.218 276.443 535.634C276.698 535.05 277.031 534.533 277.443 534.084C277.862 533.635 278.349 533.279 278.903 533.017C279.464 532.755 280.082 532.624 280.756 532.624C281.362 532.624 281.905 532.71 282.384 532.882C282.863 533.047 283.268 533.309 283.597 533.668C283.934 534.028 284.189 534.492 284.361 535.061C284.533 535.623 284.619 536.308 284.619 537.116V545H283.732V537.116C283.732 536.158 283.601 535.417 283.339 534.893C283.077 534.361 282.71 533.987 282.238 533.77C281.774 533.552 281.231 533.444 280.61 533.444C279.891 533.444 279.27 533.605 278.746 533.927C278.229 534.241 277.802 534.642 277.465 535.128C277.128 535.608 276.87 536.105 276.69 536.622C276.518 537.139 276.425 537.595 276.41 537.992ZM287.438 539.138V538.711C287.438 537.82 287.565 537.004 287.82 536.263C288.082 535.521 288.449 534.881 288.92 534.342C289.392 533.796 289.954 533.373 290.605 533.073C291.264 532.774 291.994 532.624 292.795 532.624C293.596 532.624 294.326 532.774 294.985 533.073C295.644 533.373 296.209 533.796 296.681 534.342C297.16 534.881 297.527 535.521 297.781 536.263C298.036 537.004 298.163 537.82 298.163 538.711V539.138C298.163 540.029 298.036 540.845 297.781 541.586C297.527 542.327 297.164 542.971 296.692 543.518C296.22 544.057 295.655 544.476 294.996 544.775C294.345 545.075 293.618 545.225 292.817 545.225C292.009 545.225 291.275 545.075 290.616 544.775C289.965 544.476 289.4 544.057 288.92 543.518C288.449 542.971 288.082 542.327 287.82 541.586C287.565 540.845 287.438 540.029 287.438 539.138ZM288.336 538.711V539.138C288.336 539.841 288.434 540.512 288.628 541.148C288.831 541.777 289.123 542.338 289.504 542.833C289.886 543.319 290.354 543.705 290.908 543.989C291.462 544.266 292.099 544.405 292.817 544.405C293.521 544.405 294.15 544.266 294.704 543.989C295.258 543.705 295.722 543.319 296.097 542.833C296.479 542.338 296.767 541.777 296.961 541.148C297.164 540.512 297.265 539.841 297.265 539.138V538.711C297.265 538.022 297.164 537.363 296.961 536.734C296.767 536.105 296.479 535.544 296.097 535.05C295.715 534.556 295.247 534.166 294.693 533.882C294.139 533.59 293.506 533.444 292.795 533.444C292.084 533.444 291.451 533.59 290.897 533.882C290.35 534.166 289.882 534.556 289.493 535.05C289.111 535.544 288.823 536.105 288.628 536.734C288.434 537.363 288.336 538.022 288.336 538.711ZM301.925 535.185V549.672H301.027V532.849H301.892L301.925 535.185ZM310.528 538.801V539.037C310.528 539.958 310.423 540.796 310.213 541.552C310.011 542.308 309.712 542.96 309.315 543.506C308.926 544.053 308.446 544.476 307.877 544.775C307.308 545.075 306.661 545.225 305.935 545.225C305.238 545.225 304.613 545.124 304.059 544.921C303.505 544.712 303.026 544.42 302.622 544.045C302.217 543.671 301.892 543.244 301.645 542.765C301.397 542.278 301.225 541.758 301.128 541.204V536.981C301.255 536.345 301.446 535.765 301.701 535.241C301.963 534.709 302.288 534.249 302.678 533.859C303.075 533.463 303.542 533.159 304.082 532.95C304.621 532.733 305.231 532.624 305.912 532.624C306.638 532.624 307.286 532.77 307.855 533.062C308.431 533.347 308.918 533.758 309.315 534.297C309.712 534.829 310.011 535.477 310.213 536.24C310.423 536.996 310.528 537.85 310.528 538.801ZM309.618 539.037V538.801C309.618 538.037 309.54 537.33 309.382 536.678C309.233 536.027 309 535.462 308.686 534.982C308.372 534.503 307.975 534.129 307.496 533.859C307.016 533.59 306.451 533.455 305.8 533.455C305.089 533.455 304.486 533.575 303.992 533.814C303.498 534.047 303.09 534.35 302.768 534.724C302.453 535.098 302.21 535.503 302.038 535.937C301.865 536.364 301.738 536.768 301.656 537.15V541.137C301.791 541.736 302.03 542.282 302.375 542.776C302.719 543.271 303.176 543.667 303.745 543.967C304.321 544.259 305.014 544.405 305.822 544.405C306.474 544.405 307.035 544.27 307.507 544C307.979 543.731 308.372 543.357 308.686 542.877C309 542.398 309.233 541.833 309.382 541.182C309.54 540.523 309.618 539.808 309.618 539.037ZM314.649 543.08V544.596C314.649 545.285 314.526 545.913 314.279 546.482C314.039 547.059 313.717 547.546 313.313 547.942L312.751 547.493C312.976 547.194 313.163 546.898 313.313 546.606C313.47 546.314 313.586 546.007 313.661 545.685C313.736 545.363 313.773 545.011 313.773 544.629V543.08H314.649ZM327.89 544.405C328.497 544.405 329.069 544.292 329.608 544.068C330.155 543.843 330.608 543.503 330.967 543.046C331.334 542.582 331.54 541.994 331.585 541.283H332.461C332.424 542.091 332.191 542.791 331.765 543.383C331.338 543.967 330.788 544.42 330.114 544.742C329.44 545.064 328.699 545.225 327.89 545.225C327.082 545.225 326.359 545.075 325.723 544.775C325.094 544.476 324.566 544.053 324.139 543.506C323.712 542.96 323.387 542.32 323.162 541.586C322.945 540.845 322.836 540.036 322.836 539.16V538.688C322.836 537.812 322.945 537.008 323.162 536.274C323.387 535.533 323.712 534.889 324.139 534.342C324.566 533.796 325.09 533.373 325.711 533.073C326.34 532.774 327.059 532.624 327.868 532.624C328.684 532.624 329.432 532.792 330.114 533.129C330.795 533.459 331.345 533.942 331.765 534.578C332.191 535.207 332.424 535.978 332.461 536.892H331.585C331.548 536.143 331.357 535.514 331.012 535.005C330.668 534.496 330.219 534.11 329.665 533.848C329.111 533.579 328.512 533.444 327.868 533.444C327.149 533.444 326.528 533.582 326.003 533.859C325.479 534.136 325.049 534.518 324.712 535.005C324.375 535.484 324.128 536.042 323.971 536.678C323.813 537.307 323.735 537.977 323.735 538.688V539.16C323.735 539.879 323.813 540.556 323.971 541.193C324.128 541.822 324.375 542.376 324.712 542.855C325.049 543.334 325.479 543.712 326.003 543.989C326.535 544.266 327.164 544.405 327.89 544.405ZM334.516 539.138V538.711C334.516 537.82 334.643 537.004 334.898 536.263C335.16 535.521 335.527 534.881 335.999 534.342C336.47 533.796 337.032 533.373 337.683 533.073C338.342 532.774 339.072 532.624 339.873 532.624C340.674 532.624 341.404 532.774 342.063 533.073C342.722 533.373 343.287 533.796 343.759 534.342C344.238 534.881 344.605 535.521 344.859 536.263C345.114 537.004 345.241 537.82 345.241 538.711V539.138C345.241 540.029 345.114 540.845 344.859 541.586C344.605 542.327 344.242 542.971 343.77 543.518C343.298 544.057 342.733 544.476 342.074 544.775C341.423 545.075 340.697 545.225 339.896 545.225C339.087 545.225 338.353 545.075 337.694 544.775C337.043 544.476 336.478 544.057 335.999 543.518C335.527 542.971 335.16 542.327 334.898 541.586C334.643 540.845 334.516 540.029 334.516 539.138ZM335.415 538.711V539.138C335.415 539.841 335.512 540.512 335.707 541.148C335.909 541.777 336.201 542.338 336.583 542.833C336.964 543.319 337.432 543.705 337.986 543.989C338.54 544.266 339.177 544.405 339.896 544.405C340.599 544.405 341.228 544.266 341.782 543.989C342.336 543.705 342.8 543.319 343.175 542.833C343.557 542.338 343.845 541.777 344.04 541.148C344.242 540.512 344.343 539.841 344.343 539.138V538.711C344.343 538.022 344.242 537.363 344.04 536.734C343.845 536.105 343.557 535.544 343.175 535.05C342.793 534.556 342.325 534.166 341.771 533.882C341.217 533.59 340.584 533.444 339.873 533.444C339.162 533.444 338.529 533.59 337.975 533.882C337.429 534.166 336.961 534.556 336.571 535.05C336.189 535.544 335.901 536.105 335.707 536.734C335.512 537.363 335.415 538.022 335.415 538.711ZM347.274 539.138V538.711C347.274 537.82 347.401 537.004 347.656 536.263C347.918 535.521 348.285 534.881 348.756 534.342C349.228 533.796 349.79 533.373 350.441 533.073C351.1 532.774 351.83 532.624 352.631 532.624C353.432 532.624 354.162 532.774 354.821 533.073C355.48 533.373 356.045 533.796 356.517 534.342C356.996 534.881 357.363 535.521 357.617 536.263C357.872 537.004 357.999 537.82 357.999 538.711V539.138C357.999 540.029 357.872 540.845 357.617 541.586C357.363 542.327 357 542.971 356.528 543.518C356.056 544.057 355.491 544.476 354.832 544.775C354.181 545.075 353.454 545.225 352.653 545.225C351.845 545.225 351.111 545.075 350.452 544.775C349.801 544.476 349.236 544.057 348.756 543.518C348.285 542.971 347.918 542.327 347.656 541.586C347.401 540.845 347.274 540.029 347.274 539.138ZM348.172 538.711V539.138C348.172 539.841 348.27 540.512 348.464 541.148C348.667 541.777 348.958 542.338 349.34 542.833C349.722 543.319 350.19 543.705 350.744 543.989C351.298 544.266 351.935 544.405 352.653 544.405C353.357 544.405 353.986 544.266 354.54 543.989C355.094 543.705 355.558 543.319 355.933 542.833C356.314 542.338 356.603 541.777 356.797 541.148C357 540.512 357.101 539.841 357.101 539.138V538.711C357.101 538.022 357 537.363 356.797 536.734C356.603 536.105 356.314 535.544 355.933 535.05C355.551 534.556 355.083 534.166 354.529 533.882C353.975 533.59 353.342 533.444 352.631 533.444C351.92 533.444 351.287 533.59 350.733 533.882C350.186 534.166 349.718 534.556 349.329 535.05C348.947 535.544 348.659 536.105 348.464 536.734C348.27 537.363 348.172 538.022 348.172 538.711ZM361.784 527.75V545H360.885V527.75H361.784ZM369.521 532.849L363.614 538.464L361.525 540.362L361.312 539.576L363.143 537.745L368.331 532.849H369.521ZM368.803 545L363.277 538.374L363.805 537.633L369.903 545H368.803ZM379.854 536.341L382.583 534.208C383.062 533.848 383.473 533.44 383.818 532.983C384.162 532.527 384.334 532.025 384.334 531.479C384.334 530.887 384.132 530.367 383.728 529.917C383.324 529.461 382.732 529.232 381.954 529.232C381.385 529.232 380.902 529.356 380.505 529.603C380.108 529.85 379.809 530.183 379.606 530.603C379.404 531.014 379.303 531.467 379.303 531.961C379.303 532.336 379.371 532.725 379.505 533.129C379.64 533.534 379.839 533.953 380.101 534.387C380.37 534.814 380.703 535.259 381.1 535.724L389.186 545H388.097L381.055 536.97C380.509 536.334 380.033 535.742 379.629 535.196C379.232 534.649 378.929 534.118 378.719 533.601C378.51 533.084 378.405 532.549 378.405 531.995C378.405 531.276 378.547 530.651 378.832 530.12C379.124 529.581 379.535 529.161 380.067 528.862C380.598 528.562 381.227 528.413 381.954 528.413C382.65 528.413 383.238 528.555 383.717 528.839C384.203 529.116 384.574 529.487 384.829 529.951C385.083 530.408 385.21 530.917 385.21 531.479C385.21 531.943 385.094 532.384 384.862 532.804C384.63 533.223 384.346 533.605 384.009 533.949C383.679 534.286 383.357 534.582 383.043 534.836L380.202 537.071C379.498 537.663 378.97 538.198 378.618 538.677C378.274 539.156 378.042 539.583 377.922 539.958C377.81 540.324 377.753 540.658 377.753 540.957C377.753 541.556 377.899 542.121 378.191 542.653C378.483 543.177 378.929 543.6 379.528 543.922C380.134 544.244 380.894 544.405 381.808 544.405C382.564 544.405 383.286 544.248 383.975 543.933C384.671 543.619 385.293 543.173 385.839 542.597C386.386 542.013 386.82 541.316 387.142 540.508C387.464 539.699 387.625 538.801 387.625 537.812H388.479C388.479 538.509 388.411 539.156 388.276 539.755C388.142 540.347 387.947 540.897 387.692 541.406C387.438 541.908 387.131 542.372 386.771 542.799C386.719 542.874 386.685 542.919 386.67 542.934C386.663 542.949 386.629 542.99 386.569 543.057C385.955 543.694 385.248 544.214 384.447 544.618C383.646 545.022 382.766 545.225 381.808 545.225C380.789 545.225 379.91 545.049 379.168 544.697C378.427 544.345 377.854 543.851 377.45 543.214C377.053 542.57 376.855 541.818 376.855 540.957C376.855 540.321 376.99 539.737 377.259 539.205C377.529 538.674 377.892 538.176 378.349 537.711C378.805 537.24 379.307 536.783 379.854 536.341ZM401.337 544.405C401.944 544.405 402.517 544.292 403.056 544.068C403.602 543.843 404.055 543.503 404.415 543.046C404.781 542.582 404.987 541.994 405.032 541.283H405.908C405.871 542.091 405.639 542.791 405.212 543.383C404.785 543.967 404.235 544.42 403.561 544.742C402.887 545.064 402.146 545.225 401.337 545.225C400.529 545.225 399.806 545.075 399.17 544.775C398.541 544.476 398.013 544.053 397.586 543.506C397.16 542.96 396.834 542.32 396.609 541.586C396.392 540.845 396.284 540.036 396.284 539.16V538.688C396.284 537.812 396.392 537.008 396.609 536.274C396.834 535.533 397.16 534.889 397.586 534.342C398.013 533.796 398.537 533.373 399.159 533.073C399.788 532.774 400.506 532.624 401.315 532.624C402.131 532.624 402.88 532.792 403.561 533.129C404.242 533.459 404.793 533.942 405.212 534.578C405.639 535.207 405.871 535.978 405.908 536.892H405.032C404.995 536.143 404.804 535.514 404.459 535.005C404.115 534.496 403.666 534.11 403.112 533.848C402.558 533.579 401.959 533.444 401.315 533.444C400.596 533.444 399.975 533.582 399.451 533.859C398.927 534.136 398.496 534.518 398.159 535.005C397.822 535.484 397.575 536.042 397.418 536.678C397.261 537.307 397.182 537.977 397.182 538.688V539.16C397.182 539.879 397.261 540.556 397.418 541.193C397.575 541.822 397.822 542.376 398.159 542.855C398.496 543.334 398.927 543.712 399.451 543.989C399.982 544.266 400.611 544.405 401.337 544.405ZM409.704 527.75V545H408.817V527.75H409.704ZM409.536 537.992L409.098 537.476C409.165 536.832 409.322 536.218 409.569 535.634C409.824 535.05 410.157 534.533 410.569 534.084C410.988 533.635 411.475 533.279 412.029 533.017C412.59 532.755 413.208 532.624 413.882 532.624C414.488 532.624 415.031 532.71 415.51 532.882C415.989 533.047 416.394 533.309 416.723 533.668C417.06 534.028 417.315 534.492 417.487 535.061C417.659 535.623 417.745 536.308 417.745 537.116V545H416.858V537.116C416.858 536.158 416.727 535.417 416.465 534.893C416.203 534.361 415.836 533.987 415.364 533.77C414.9 533.552 414.357 533.444 413.736 533.444C413.017 533.444 412.396 533.605 411.872 533.927C411.355 534.241 410.928 534.642 410.591 535.128C410.254 535.608 409.996 536.105 409.816 536.622C409.644 537.139 409.551 537.595 409.536 537.992ZM422.462 532.849V545H421.563V532.849H422.462ZM421.283 529.165C421.283 528.963 421.35 528.791 421.485 528.648C421.627 528.499 421.807 528.424 422.024 528.424C422.234 528.424 422.41 528.499 422.552 528.648C422.694 528.791 422.765 528.963 422.765 529.165C422.765 529.367 422.694 529.539 422.552 529.682C422.41 529.816 422.234 529.884 422.024 529.884C421.807 529.884 421.627 529.816 421.485 529.682C421.35 529.539 421.283 529.367 421.283 529.165ZM427.381 527.75V545H426.482V527.75H427.381ZM432.3 527.75V545H431.401V527.75H432.3Z" fill="black"/>
</svg>
