<svg width="100%" height="100%" id="svg" viewBox="0 0 1440 590" xmlns="http://www.w3.org/2000/svg" className="transition duration-300 ease-in-out delay-150"><defs><linearGradient id="gradient" x1="0%" y1="50%" x2="100%" y2="50%"><stop offset="5%" stop-color="#ff7d41"></stop><stop offset="95%" stop-color="#ff9d85"></stop></linearGradient></defs><path d="M 0,600 C 0,600 0,150 0,150 C 114.23923444976077,168.73684210526315 228.47846889952154,187.4736842105263 323,170 C 417.52153110047846,152.5263157894737 492.32535885167465,98.84210526315789 582,97 C 671.6746411483253,95.15789473684211 776.22009569378,145.1578947368421 884,165 C 991.77990430622,184.8421052631579 1102.79425x83732056,174.52631578947367 1196,167 C 1289.2057416267944,159.47368421052633 1364.6028708133972,154.73684210526318 1440,150 C 1440,150 1440,600 1440,600 Z" stroke="none" stroke-width="0" fill="url(#gradient)" fill-opacity="0.4" className="transition-all duration-300 ease-in-out delay-150 path-0"></path><defs><defs><linearGradient id="gradient" x1="0%" y1="50%" x2="100%" y2="50%"><stop offset="5%" stop-color="#ff7d41"></stop><stop offset="95%" stop-color="#ff9d85"></stop></linearGradient></defs><path d="M 0,600 C 0,600 0,300 0,300 C 113.98086124401911,308.02870813397135 227.96172248803822,316.05741626794264 327,324 C 426.0382775119618,331.94258373205736 510.13397129186615,339.7990430622009 609,342 C 707.8660287081339,344.2009569377991 821.5023923444976,340.7464114832536 912,341 C 1002.4976076555024,341.2535885167464 1069.8564593301437,345.21531100478467 1154,339 C 1238.1435406698563,332.78468899521533 1339.0717703349283,316.39234449760767 1440,300 C 1440,300 1440,600 1440,600 Z" stroke="none" stroke-width="0" fill="url(#gradient)" fill-opacity="0.53" className="transition-all duration-300 ease-in-out delay-150 path-1"></path><linearGradient id="gradient" x1="0%" y1="50%" x2="100%" y2="50%"><stop offset="5%" stop-color="#ff7d41"></stop><stop offset="95%" stop-color="#ff9d85"></stop></linearGradient></defs><path d="M 0,600 C 0,600 0,450 0,450 C 90.82296650717703,479.4066985645933 181.64593301435406,508.8133971291866 273,505 C 364.35406698564594,501.1866028708134 456.23923444976083,464.1531100478469 559,440 C 661.7607655502392,415.8468899521531 775.3971291866029,404.57416267942585 886,414 C 996.6028708133971,423.42583732057415 1104.1722488038276,453.5502392344498 1196,463 C 1287.8277511961724,472.4497607655502 1363.9138755980862,461.2248803827751 1440,450 C 1440,450 1440,600 1440,600 Z" stroke="none" stroke-width="0" fill="url(#gradient)" fill-opacity="1" className="transition-all duration-300 ease-in-out delay-150 path-2"></path></svg>
